<svg width="270" height="269" viewBox="0 0 270 269" fill="none" xmlns="http://www.w3.org/2000/svg">
<path d="M48.543 133.044C50.8757 133.044 52.7717 134.857 52.9175 137.25C55.1048 178.872 88.7828 212.373 130.625 214.549C132.958 214.694 134.853 216.579 134.854 218.899L134.928 229H87.5L40 181.75V132.981L48.543 133.044Z" fill="white"/>
<path d="M212.343 133.116C214.895 133.116 216.863 135.219 216.718 137.757C214.312 178.799 181.143 211.793 139.884 214.186C137.333 214.331 135.219 212.372 135.219 209.834V191.634C135.146 189.386 136.967 187.502 139.227 187.284C166.126 185.254 187.631 163.862 189.672 137.104C189.818 134.856 191.714 133.116 194.046 133.116H212.343Z" fill="white"/>
<path d="M135.145 83.2989C135.145 80.761 137.333 78.7315 139.884 78.949C166.054 81.2698 186.902 102.08 189.235 128.04C189.453 130.578 187.412 132.753 184.86 132.753L164.887 132.898C163.429 132.898 162.19 134.059 162.044 135.509C160.805 148.344 150.526 158.567 137.623 159.8C136.165 159.946 135 161.178 135 162.628L134.854 182.498C134.854 185.036 132.666 187.065 130.114 186.848C103.945 184.527 83.0964 163.716 80.7637 137.757C80.5451 135.219 82.5869 133.044 85.1382 133.044L105.111 132.898C106.569 132.898 107.808 131.811 107.954 130.288C109.193 117.453 119.473 107.229 132.376 105.996C133.833 105.851 135 104.618 135 103.168L135.145 83.2989Z" fill="white"/>
<path d="M230 87.25V132.814L221.455 132.753C219.123 132.68 217.227 130.867 217.081 128.547C214.894 86.9244 181.216 53.4232 139.373 51.2478C137.041 51.1027 135.145 49.218 135.145 46.8979L135.094 40H182.5L230 87.25Z" fill="white"/>
<path d="M130.188 51.6107C132.667 51.4659 134.78 53.4968 134.78 55.9622V74.1627C134.78 76.4103 133.031 78.2948 130.772 78.5126C103.873 80.543 82.3678 101.935 80.3266 128.692C80.1808 130.94 78.2848 132.681 75.9521 132.681H57.6553C55.104 132.681 53.1366 130.578 53.2823 128.04C55.7608 86.9974 88.8557 54.0762 130.188 51.6107Z" fill="white"/>
</svg>
