<svg width="1297" height="352" viewBox="0 0 1297 352" fill="none" xmlns="http://www.w3.org/2000/svg">
<path d="M40 236.954V48.4409H67.1335V135.024H74.8128L63.9338 140.139L142.903 48.4409H177.46L89.5315 149.476V135.535L182.323 236.954H147.254L63.9338 145.895L74.8128 150.499H67.1335V236.954H40Z" fill="white"/>
<path d="M238.039 239C225.24 239 213.764 236.016 203.61 230.048C193.456 224.079 185.436 215.766 179.548 205.109C173.661 194.451 170.717 182.173 170.717 168.276C170.717 154.634 173.661 142.612 179.548 132.21C185.436 121.723 193.456 113.581 203.61 107.783C213.764 101.9 225.24 98.9582 238.039 98.9582C251.008 98.9582 262.57 101.9 272.724 107.783C282.878 113.581 290.856 121.723 296.658 132.21C302.46 142.612 305.361 154.634 305.361 168.276C305.361 182.173 302.417 194.451 296.53 205.109C290.642 215.766 282.622 224.079 272.468 230.048C262.314 236.016 250.838 239 238.039 239ZM238.039 215.468C246.06 215.468 253.184 213.507 259.413 209.585C265.642 205.578 270.505 200.078 274.004 193.087C277.502 186.01 279.251 177.74 279.251 168.276C279.251 159.153 277.502 151.138 274.004 144.232C270.505 137.326 265.642 131.997 259.413 128.246C253.184 124.409 246.06 122.49 238.039 122.49C230.189 122.49 223.15 124.409 216.921 128.246C210.692 131.997 205.786 137.326 202.202 144.232C198.619 151.053 196.827 159.067 196.827 168.276C196.827 177.74 198.576 186.01 202.074 193.087C205.658 200.078 210.521 205.578 216.665 209.585C222.894 213.507 230.018 215.468 238.039 215.468Z" fill="white"/>
<path d="M322.168 236.954V101.005H348.022V121.339H351.606L343.798 130.036C346.188 124.75 349.473 119.719 353.654 114.945C357.92 110.17 363.039 106.333 369.012 103.434C375.07 100.45 382.024 98.9582 389.874 98.9582C392.946 98.9582 395.804 99.1714 398.449 99.5977C401.095 100.024 402.972 100.45 404.081 100.877L393.458 126.071C392.861 125.73 391.623 125.432 389.746 125.176C387.869 124.835 385.779 124.665 383.475 124.665C379.72 124.665 375.796 125.475 371.7 127.094C367.604 128.714 363.765 131.059 360.181 134.129C356.683 137.113 353.824 140.864 351.606 145.383C349.387 149.902 348.278 155.103 348.278 160.986V236.954H322.168Z" fill="white"/>
<path d="M443.158 239C434.54 239 426.818 237.337 419.992 234.012C413.166 230.602 407.791 225.827 403.866 219.688C399.941 213.549 397.978 206.345 397.978 198.075C397.978 189.378 400.325 181.875 405.018 175.566C409.796 169.256 416.75 164.439 425.88 161.114C435.01 157.789 446.102 156.126 459.157 156.126H488.082V175.438H460.309C448.534 175.438 439.404 177.356 432.919 181.193C426.52 184.944 423.32 190.444 423.32 197.691C423.32 201.869 424.387 205.45 426.52 208.434C428.653 211.333 431.511 213.592 435.095 215.212C438.764 216.747 442.86 217.514 447.382 217.514C452.416 217.514 457.749 216.406 463.381 214.189C469.012 211.972 473.833 208.647 477.843 204.213C481.853 199.695 483.859 194.11 483.859 187.46V173.391L482.707 165.846V149.987C482.707 147.515 482.451 144.701 481.939 141.546C481.512 138.306 480.403 135.237 478.611 132.338C476.905 129.354 474.217 126.881 470.548 124.92C466.879 122.959 461.887 121.979 455.573 121.979C451.392 121.979 446.87 122.49 442.006 123.513C437.228 124.537 432.578 125.943 428.056 127.734C423.619 129.524 419.694 131.571 416.281 133.873L406.938 111.875C411.119 109.403 416.025 107.186 421.656 105.225C427.288 103.179 433.261 101.601 439.575 100.493C445.889 99.3845 452.203 98.8303 458.517 98.8303C468.756 98.8303 477.075 100.28 483.475 103.179C489.959 106.078 494.951 110 498.449 114.945C501.948 119.89 504.337 125.347 505.617 131.315C506.982 137.283 507.664 143.337 507.664 149.476V195.517C507.664 201.059 508.262 205.407 509.456 208.562C510.651 211.631 512.827 213.763 515.984 214.956L518.671 215.979L508.944 239L505.233 237.465C499.601 235.163 495.079 232.051 491.666 228.129C488.253 224.207 486.461 220.285 486.29 216.363L491.282 218.793H482.067L488.338 215.212C485.096 221.692 479.422 227.277 471.316 231.966C463.295 236.655 453.909 239 443.158 239Z" fill="white"/>
<path d="M621.871 239C608.731 239 596.487 236.655 585.138 231.966C573.79 227.277 563.892 220.669 555.445 212.143C547.083 203.531 540.556 193.343 535.863 181.576C531.17 169.81 528.824 156.893 528.824 142.825C528.824 128.928 531.127 116.138 535.735 104.458C540.342 92.7768 546.87 82.588 555.317 73.8914C563.764 65.1947 573.79 58.4591 585.394 53.6844C596.999 48.8246 609.798 46.3946 623.791 46.3946C635.395 46.3946 646.232 47.9719 656.3 51.1266C666.454 54.196 675.37 58.3738 683.05 63.66L672.555 88.599C667.35 83.3128 660.438 79.0923 651.82 75.9377C643.288 72.783 633.945 71.2057 623.791 71.2057C610.651 71.2057 598.961 74.2324 588.722 80.286C578.568 86.2543 570.59 94.5673 564.788 105.225C558.986 115.883 556.085 128.203 556.085 142.186C556.085 152.843 557.749 162.606 561.077 171.473C564.404 180.255 569.055 187.843 575.027 194.238C581 200.632 587.997 205.578 596.017 209.073C604.038 212.569 612.699 214.317 621.999 214.317C633.518 214.317 643.416 211.759 651.692 206.643C659.969 201.528 666.326 194.621 670.763 185.925C675.285 177.228 677.546 167.594 677.546 157.021H616.24V132.978H704.168V152.673C704.168 169.299 700.797 184.134 694.057 197.179C687.401 210.139 677.887 220.37 665.515 227.873C653.228 235.291 638.68 239 621.871 239Z" fill="white"/>
<path d="M722.639 236.954V101.005H748.493V121.339H752.076L744.269 130.036C746.658 124.75 749.943 119.719 754.124 114.945C758.39 110.17 763.51 106.333 769.483 103.434C775.541 100.45 782.495 98.9582 790.345 98.9582C793.417 98.9582 796.275 99.1714 798.92 99.5977C801.565 100.024 803.442 100.45 804.552 100.877L793.929 126.071C793.331 125.73 792.094 125.432 790.217 125.176C788.34 124.835 786.249 124.665 783.945 124.665C780.191 124.665 776.266 125.475 772.17 127.094C768.075 128.714 764.235 131.059 760.651 134.129C757.153 137.113 754.295 140.864 752.076 145.383C749.858 149.902 748.749 155.103 748.749 160.986V236.954H722.639Z" fill="white"/>
<path d="M813.168 236.954V101.005H839.277V236.954H813.168ZM826.222 80.5418C821.018 80.5418 816.623 78.7513 813.04 75.1703C809.541 71.5893 807.792 67.241 807.792 62.1253C807.792 57.0096 809.541 52.6613 813.04 49.0803C816.623 45.4994 821.018 43.7089 826.222 43.7089C831.342 43.7089 835.694 45.4994 839.277 49.0803C842.861 52.6613 844.653 57.0096 844.653 62.1253C844.653 67.241 842.861 71.5893 839.277 75.1703C835.694 78.7513 831.342 80.5418 826.222 80.5418Z" fill="white"/>
<path d="M987.273 239C981.812 236.613 977.375 234.14 973.962 231.582C970.549 229.024 967.989 226.211 966.283 223.141C964.576 220.072 963.638 216.576 963.467 212.654L968.971 215.596H956.684L963.339 200.249V130.036L956.94 116.352H959.883V40H985.993V197.179C985.993 202.636 986.718 206.686 988.169 209.329C989.705 211.887 992.648 214.104 997 215.979L987.273 239ZM917.647 239C909.541 239 901.819 237.423 894.481 234.268C887.143 231.028 880.616 226.381 874.899 220.328C869.268 214.274 864.788 206.942 861.46 198.33C858.218 189.634 856.639 179.786 856.725 168.787C856.639 154.208 859.412 141.674 865.044 131.187C870.761 120.7 878.269 112.685 887.57 107.143C896.956 101.516 907.067 98.7024 917.903 98.7024C929.337 98.7024 939.491 101.687 948.364 107.655C957.238 113.623 964.192 121.851 969.227 132.338C974.346 142.825 976.948 154.89 977.034 168.531C976.948 181.918 974.346 193.939 969.227 204.597C964.107 215.255 957.068 223.653 948.108 229.792C939.235 235.931 929.081 239 917.647 239ZM922.767 215.979C930.275 215.979 936.973 213.933 942.861 209.841C948.834 205.748 953.527 200.163 956.94 193.087C960.353 185.925 962.059 177.782 962.059 168.659C962.059 158.94 960.267 150.584 956.684 143.593C953.185 136.516 948.45 131.102 942.477 127.35C936.589 123.599 930.062 121.723 922.895 121.723C915.13 121.723 908.219 123.684 902.161 127.606C896.102 131.528 891.367 137.027 887.954 144.104C884.541 151.181 882.877 159.366 882.962 168.659C882.877 177.782 884.541 185.925 887.954 193.087C891.367 200.163 896.06 205.748 902.033 209.841C908.091 213.933 915.002 215.979 922.767 215.979Z" fill="white"/>
<path d="M1075.54 138.044C1077.88 138.044 1079.77 139.857 1079.92 142.25C1082.1 183.872 1115.78 217.373 1157.63 219.549C1159.96 219.694 1161.85 221.579 1161.85 223.899L1161.93 234H1114.5L1067 186.75V137.981L1075.54 138.044Z" fill="white"/>
<path d="M1239.34 138.116C1241.89 138.116 1243.86 140.219 1243.72 142.757C1241.31 183.799 1208.14 216.793 1166.88 219.186C1164.33 219.331 1162.22 217.372 1162.22 214.834V196.634C1162.15 194.386 1163.97 192.502 1166.23 192.284C1193.13 190.254 1214.63 168.862 1216.67 142.104C1216.82 139.856 1218.71 138.116 1221.05 138.116H1239.34Z" fill="white"/>
<path d="M1162.14 88.2989C1162.14 85.761 1164.33 83.7315 1166.88 83.949C1193.05 86.2698 1213.9 107.08 1216.23 133.04C1216.45 135.578 1214.41 137.753 1211.86 137.753L1191.89 137.898C1190.43 137.898 1189.19 139.059 1189.04 140.509C1187.8 153.344 1177.53 163.567 1164.62 164.8C1163.17 164.946 1162 166.178 1162 167.628L1161.85 187.498C1161.85 190.036 1159.67 192.065 1157.11 191.848C1130.94 189.527 1110.1 168.716 1107.76 142.757C1107.55 140.219 1109.59 138.044 1112.14 138.044L1132.11 137.898C1133.57 137.898 1134.81 136.811 1134.95 135.288C1136.19 122.453 1146.47 112.229 1159.38 110.996C1160.83 110.851 1162 109.618 1162 108.168L1162.14 88.2989Z" fill="white"/>
<path d="M1257 92.25V137.814L1248.46 137.753C1246.12 137.68 1244.23 135.867 1244.08 133.547C1241.89 91.9244 1208.22 58.4232 1166.37 56.2478C1164.04 56.1027 1162.14 54.218 1162.14 51.8979L1162.09 45H1209.5L1257 92.25Z" fill="white"/>
<path d="M1157.19 56.6107C1159.67 56.4659 1161.78 58.4968 1161.78 60.9622V79.1627C1161.78 81.4103 1160.03 83.2948 1157.77 83.5126C1130.87 85.543 1109.37 106.935 1107.33 133.692C1107.18 135.94 1105.28 137.681 1102.95 137.681H1084.66C1082.1 137.681 1080.14 135.578 1080.28 133.04C1082.76 91.9974 1115.86 59.0762 1157.19 56.6107Z" fill="white"/>
<path d="M837.313 303L855.041 258.2H860.929L878.401 303H873.089L867.777 288.92H847.809L842.497 303H837.313ZM849.345 285.016H866.305L857.793 262.68L849.345 285.016ZM882.983 303V275.608H876.007V271.768H882.983V265.24C882.983 262.168 883.794 259.8 885.415 258.136C887.036 256.472 889.34 255.64 892.327 255.64C893.18 255.64 893.948 255.683 894.631 255.768C895.356 255.853 895.996 256.003 896.551 256.216V260.44C895.868 260.227 895.25 260.077 894.695 259.992C894.14 259.907 893.5 259.864 892.775 259.864C890.983 259.864 889.682 260.312 888.871 261.208C888.06 262.061 887.655 263.427 887.655 265.304V271.768H896.551V275.608H887.655V303H882.983ZM901.743 303V271.768H906.415V278.168C907.225 275.992 908.377 274.307 909.871 273.112C911.407 271.875 913.156 271.256 915.119 271.256C915.673 271.256 916.185 271.299 916.655 271.384C917.124 271.427 917.593 271.533 918.063 271.704V275.928C917.551 275.757 916.996 275.629 916.399 275.544C915.844 275.416 915.311 275.352 914.799 275.352C912.879 275.352 911.193 275.907 909.743 277.016C908.335 278.125 907.225 279.683 906.415 281.688V303H901.743ZM923.218 303V271.768H927.89V303H923.218ZM925.586 264.024C924.648 264.024 923.837 263.704 923.154 263.064C922.514 262.381 922.194 261.592 922.194 260.696C922.194 259.8 922.514 259.032 923.154 258.392C923.837 257.709 924.648 257.368 925.586 257.368C926.525 257.368 927.314 257.709 927.954 258.392C928.637 259.032 928.978 259.8 928.978 260.696C928.978 261.592 928.637 262.381 927.954 263.064C927.314 263.704 926.525 264.024 925.586 264.024ZM950.526 303.512C947.625 303.512 945.001 302.808 942.654 301.4C940.35 299.949 938.515 298.008 937.15 295.576C935.785 293.101 935.102 290.371 935.102 287.384C935.102 284.355 935.785 281.624 937.15 279.192C938.515 276.76 940.35 274.84 942.654 273.432C945.001 271.981 947.625 271.256 950.526 271.256C952.83 271.256 955.027 271.683 957.118 272.536C959.209 273.389 961.022 274.584 962.558 276.12L959.55 279.384C958.441 278.147 957.097 277.187 955.518 276.504C953.939 275.821 952.339 275.48 950.718 275.48C948.67 275.48 946.814 276.013 945.15 277.08C943.529 278.147 942.227 279.576 941.246 281.368C940.265 283.16 939.774 285.165 939.774 287.384C939.774 289.603 940.265 291.608 941.246 293.4C942.227 295.192 943.529 296.621 945.15 297.688C946.814 298.755 948.67 299.288 950.718 299.288C952.339 299.288 953.939 298.947 955.518 298.264C957.097 297.539 958.441 296.579 959.55 295.384L962.558 298.648C961.022 300.184 959.209 301.379 957.118 302.232C955.027 303.085 952.83 303.512 950.526 303.512ZM977.777 303.576C975.558 303.576 973.595 303.171 971.889 302.36C970.182 301.549 968.838 300.44 967.857 299.032C966.918 297.581 966.449 295.917 966.449 294.04C966.449 292.163 966.939 290.541 967.921 289.176C968.902 287.768 970.267 286.68 972.017 285.912C973.766 285.144 975.814 284.76 978.161 284.76C979.953 284.76 981.638 284.952 983.217 285.336C984.838 285.72 986.331 286.339 987.697 287.192V282.904C987.697 280.344 987.014 278.424 985.649 277.144C984.283 275.821 982.278 275.16 979.633 275.16C978.182 275.16 976.689 275.373 975.153 275.8C973.659 276.227 971.995 276.909 970.161 277.848L968.433 274.264C972.614 272.259 976.539 271.256 980.208 271.256C984.091 271.256 987.078 272.216 989.169 274.136C991.259 276.013 992.305 278.723 992.305 282.264V303H987.697V299.352C986.331 300.76 984.817 301.827 983.153 302.552C981.489 303.235 979.697 303.576 977.777 303.576ZM970.929 293.912C970.929 295.747 971.633 297.219 973.041 298.328C974.491 299.437 976.39 299.992 978.737 299.992C980.486 299.992 982.086 299.693 983.537 299.096C985.03 298.499 986.417 297.603 987.697 296.408V290.392C986.374 289.624 985.009 289.069 983.601 288.728C982.193 288.344 980.614 288.152 978.865 288.152C976.475 288.152 974.555 288.685 973.105 289.752C971.654 290.776 970.929 292.163 970.929 293.912Z" fill="white"/>
</svg>
